<svg width="132" height="521" viewBox="0 0 132 521" fill="none" xmlns="http://www.w3.org/2000/svg">
	<path
		d="M112.413 519.058L115.413 516.058L113.413 505.058L114.413 499.058L112.413 498.058L109.413 489.058V485.058L112.413 479.058L106.413 468.058L109.413 457.058L103.413 451.058L98.4126 452.058L96.4126 450.058L97.4126 444.058L103.413 440.058L102.413 437.058L105.413 433.058L111.413 423.058H116.413L119.413 421.058L120.413 416.058L116.413 418.058L115.413 417.058L116.413 411.058L119.413 410.058V408.058L126.413 403.058L125.413 394.058L129.413 390.058L128.413 380.058L130.413 378.058L128.413 375.058L130.413 362.058L128.413 357.058L127.413 356.058L129.413 354.058L124.413 349.058L127.413 346.058L121.413 343.058V341.058L125.413 339.058V337.058L121.413 336.058H119.413L117.413 330.058L118.413 326.058L116.413 320.058L107.413 318.058L105.413 322.058L104.413 314.058L101.413 311.058H99.4126L97.4126 314.058L95.4126 309.058L93.4126 307.058L92.4126 302.058L86.4126 305.058L85.4126 304.058L87.4126 302.058L83.4126 299.058L79.4126 290.058L78.4126 289.058L77.4126 291.058L75.4126 288.058L79.4126 286.058V282.058L82.4126 281.058L78.4126 280.058L75.4126 281.058L74.4126 280.058L76.4126 278.058H74.4126L73.4126 279.058L68.4126 274.058L69.4126 271.058H66.4126L63.4126 266.058L60.4126 264.058L56.4126 265.058L54.4126 256.058L55.4126 253.058L52.4126 254.058L50.4126 252.058L52.4126 243.058L45.4126 239.058L43.4126 236.058V229.058L47.4126 224.058L52.4126 223.058L54.4126 221.058L57.4126 206.058L61.4126 201.058V188.058L64.4126 178.058L63.4126 151.058L53.4126 140.058L48.4126 125.058L43.4126 107.058L41.4126 93.0579L42.4126 89.0579L36.4126 81.0579L38.4126 68.0579L35.4126 64.0579V53.0579L31.4126 51.0579L24.4126 40.0579L23.4126 35.0579L11.4126 18.0579L12.4126 11.0579L8.41257 7.05789H4.41257L1.41257 4.05789V2.05789L3.41257 1.05789M108.413 472.058L107.413 470.058"
		stroke="black" stroke-width="2" />
</svg>