<svg width="324" height="400" viewBox="0 0 324 400" fill="none" xmlns="http://www.w3.org/2000/svg">
	<path
		d="M30.24 399.57L30.17 399.56L29.9 399.43H29.69L29.65 399.41H29.5V399.4H29.47L29.43 399.43M29.43 399.43L29.35 399.47V399.5L29.33 399.51L29.31 399.55H29.18L29.16 399.52L29.15 399.5L29.13 399.48V399.46M29.43 399.43L29.39 399.4H29.35L29.33 399.39H29.32L29.3 399.4V399.42H29.28V399.4H29.26V399.44L29.25 399.45L29.24 399.46L29.21 399.48L29.12 399.46L29.09 399.44H29.03L28.99 399.42H28.9L28.87 399.44H28.75L28.72 399.42H28.66L28.62 399.44H28.5L28.47 399.42L28.44 399.4H28.34L28.31 399.41H28.24L28.22 399.39L28.21 399.38L28.19 399.35L28.18 399.33L28.17 399.32L28.15 399.29L28.12 399.27H28.07L28.06 399.28L28.02 399.29H27.86L27.82 399.28L27.74 399.3H27.68L27.63 399.32H27.59L27.58 399.34H27.55L27.52 399.36L27.5 399.37L27.47 399.39L27.43 399.4H27.32L27.28 399.39L27.24 399.37L27.21 399.36H27.2L27.16 399.34L27.1 399.32H27.03L27 399.34L26.9 399.4L26.86 399.42L26.83 399.45L26.77 399.53L26.73 399.56H26.63L26.59 399.54H26.52L26.48 399.56L26.44 399.58L26.41 399.6L26.36 399.67L26.33 399.69L26.31 399.7V399.72L26.29 399.74L26.27 399.76L26.25 399.8V399.81L26.22 399.83L26.2 399.85L26.17 399.87H26.11L26.08 399.89H26.06L26.04 399.91H25.97L25.95 399.9H25.9L25.88 399.92L25.79 399.98L25.75 400H25.68L25.61 399.98L25.55 399.96L25.49 399.95L25.45 399.93L25.41 399.91L25.38 399.89L25.35 399.87L25.33 399.84L25.29 399.82L25.25 399.8H25.08L25.06 399.81L25.04 399.83H25L24.98 399.84H24.94L24.9 399.81L24.86 399.79L24.84 399.78H24.78L24.75 399.76L24.73 399.74L24.71 399.72L24.7 399.69L24.68 399.68L24.66 399.66L24.61 399.65H24.5L24.44 399.67L24.39 399.69L24.35 399.72L24.32 399.74L24.28 399.76L24.24 399.78H24.09L24.07 399.76L24.02 399.71L24.01 399.69L23.98 399.67H23.97L23.95 399.66H23.92L23.88 399.67L23.85 399.69L23.83 399.7L23.8 399.72L23.78 399.74H23.75L23.73 399.72H23.71L23.69 399.71L23.66 399.7L23.63 399.66L23.6 399.64L23.58 399.62H23.54L23.51 399.6L23.48 399.58L23.46 399.57L23.42 399.55L23.39 399.53H23.36L23.31 399.52H23.29L23.26 399.51H23.23L23.2 399.49L23.16 399.48L23.12 399.49L23.08 399.5L23.01 399.54L22.95 399.59H22.83L22.79 399.58H22.77L22.74 399.56L22.72 399.54L22.7 399.49V399.45L22.67 399.42L22.65 399.39L22.61 399.37L22.54 399.34L22.51 399.33H22.43L22.38 399.35H22.28L22.24 399.33L22.19 399.31L22.14 399.27L22.11 399.25L22.09 399.23L22.07 399.2L22.05 399.18L22.02 399.15H21.99L21.95 399.16L21.91 399.17H21.8L21.78 399.16H21.71L21.67 399.15H21.58L21.5 399.13L21.45 399.11H21.41L21.33 399.14L21.28 399.17L21.23 399.21L21.19 399.23H21.15L21.12 399.25H21.09L21.06 399.26H21L20.96 399.24L20.92 399.22L20.89 399.2L20.86 399.19L20.84 399.18H20.81L20.8 399.17L20.78 399.15L20.75 399.12L20.7 399.09L20.68 399.06L20.65 399.04H20.53L20.49 399.03L20.46 399.02H20.09L20.06 399.04L20.04 399.06L20 399.07H19.95L19.92 399.06L19.89 399.04L19.87 399L19.84 398.97L19.82 398.94L19.78 398.91L19.76 398.88L19.71 398.83H19.6L19.56 398.84L19.51 398.85H19.38L19.34 398.84L19.32 398.82L19.3 398.77V398.73L19.28 398.69L19.26 398.65L19.21 398.63L19.16 398.62L19.12 398.6L19.09 398.58L19.07 398.56L19.04 398.55H19L18.97 398.57H18.9L18.86 398.58H18.79L18.74 398.59L18.72 398.61H18.7L18.67 398.63H18.59L18.58 398.62L18.54 398.61H18.51L18.47 398.59H18.42L18.37 398.57H18.26L18.23 398.58L18.21 398.59H18.1L18.07 398.57L18.03 398.56L18 398.54L17.97 398.5L17.94 398.47L17.91 398.46H17.82L17.78 398.44H17.74L17.7 398.43L17.63 398.4L17.59 398.38L17.55 398.36H17.5L17.46 398.34H17.44L17.32 398.29L17.29 398.28L17.24 398.27H17.2L17.16 398.28L17.12 398.3L17.06 398.31L17.02 398.32L16.99 398.34H16.9L16.87 398.32H16.79L16.74 398.35L16.67 398.39L16.61 398.42L16.55 398.45L16.5 398.49L16.42 398.52L16.36 398.55H16.25L16.21 398.54H16.17L16.13 398.52L16.08 398.5L16.06 398.49L16.04 398.47L16.01 398.44L15.97 398.42L15.94 398.41H15.79L15.74 398.44L15.68 398.46L15.65 398.48L15.62 398.5L15.58 398.55L15.54 398.6L15.51 398.63L15.48 398.66H15.46L15.41 398.69L15.37 398.7L15.33 398.71H15.3L15.25 398.7H15.21L15.16 398.68L15.11 398.66H14.95L14.91 398.67H14.79L14.75 398.66H14.67L14.64 398.68L14.61 398.71L14.59 398.74L14.56 398.78L14.54 398.8V398.84L14.53 398.88L14.52 398.93V398.94L14.49 398.96H14.46L14.41 398.98H14.38L14.35 399L14.32 399.01L14.31 399.03H14.29L14.27 399.04H14.22L14.19 399.02L14.16 399L14.13 398.99H14.1L14.07 399.01L14.03 399.03L14.01 399.05H13.93L13.88 399.07L13.85 399.09L13.82 399.1H13.79L13.74 399.11H13.69L13.65 399.13H13.63L13.61 399.15L13.58 399.17L13.53 399.19H13.45L13.42 399.2L13.36 399.22L13.26 399.25L13.24 399.27L13.21 399.29L13.18 399.35L13.16 399.37V399.39L13.14 399.42L13.12 399.44L13.09 399.5L13.05 399.6L13.03 399.63L13.02 399.64L13 399.65H12.96L12.92 399.6L12.88 399.56L12.85 399.54L12.82 399.51L12.78 399.5L12.73 399.49H12.7L12.67 399.51H12.65L12.64 399.53L12.63 399.56V399.58L12.61 399.6L12.57 399.62L12.55 399.65L12.53 399.68L12.5 399.72V399.75L12.48 399.76L12.47 399.78H12.44L12.42 399.77L12.37 399.75H12.34L12.24 399.74H12.2L12.15 399.73H12.1L12.05 399.74H11.89L11.85 399.72L11.82 399.7L11.78 399.68H11.73L11.67 399.71L11.57 399.76L11.49 399.79H11.46L11.43 399.8H11.37L11.35 399.77V399.75L11.33 399.7L11.31 399.61V399.58L11.29 399.55L11.24 399.51L11.2 399.49L11.13 399.43L11.1 399.41L11.08 399.39L11.04 399.38H10.96L10.94 399.4L10.91 399.39L10.87 399.37L10.84 399.35H10.81L10.79 399.34L10.76 399.32L10.7 399.28L10.64 399.23L10.59 399.19L10.56 399.16L10.52 399.14L10.42 399.11L10.38 399.1L10.35 399.07L10.29 399.02L10.25 398.98L10.23 398.97L10.2 398.95H10.16L10.13 398.94L10.09 398.93L10.07 398.92L10.04 398.89L10 398.86L9.98001 398.83L9.94001 398.8L9.91001 398.78L9.86001 398.74L9.82001 398.72L9.79001 398.71H9.63001L9.50001 398.7L9.43001 398.69L9.27001 398.65L9.23001 398.64L9.19001 398.62L9.14001 398.6L9.08001 398.55L9.06001 398.53L9.03001 398.5L9.01001 398.47L8.98001 398.38L8.96001 398.36L8.93001 398.31L8.89001 398.28L8.86001 398.26L8.81001 398.25L8.75001 398.21L8.71001 398.19L8.67001 398.17L8.64001 398.15H8.63001L8.60001 398.14H8.54001L8.52001 398.17L8.50001 398.2L8.48001 398.24L8.46001 398.27L8.44001 398.29L8.40001 398.31L8.37001 398.32L8.30001 398.33H8.17001L8.15001 398.31L8.12001 398.29L8.10001 398.26V398.23L8.09001 398.2V398.1L8.07001 398.07L8.05001 398.05L8.02001 398.04H7.92001L7.88001 398.06L7.84001 398.1L7.81001 398.13L7.79001 398.21L7.75001 398.25H7.70001L7.67001 398.22L7.65001 398.21H7.64001L7.61001 398.24H7.51001L7.36001 398.2H7.26001L7.16001 398.17H7.13001L7.07001 398.2L7.01001 398.22L6.91001 398.2L6.83001 398.21L6.70001 398.24L6.53001 398.22L6.35001 398.31H6.29001L6.23001 398.33L6.20001 398.34H6.12001L6.09001 398.32L6.07001 398.28L6.04001 398.24L6.00001 398.14L5.94001 398.08L5.83001 398.01L5.73001 397.96L5.53001 397.92L5.42001 397.89L5.36001 397.87L5.30001 397.83L5.20001 397.74L5.14001 397.65L5.10001 397.58L4.99001 397.36L4.92001 397.29L4.87001 397.25H4.80001L4.55001 397.28L4.44001 397.29L4.34001 397.27L4.17001 397.17L4.13001 397.07L4.11001 396.95L4.09001 396.82L4.05001 396.74L3.94001 396.6L3.82001 396.54L3.74001 396.52H3.65001L3.56001 396.56L3.51001 396.58H3.37001L3.32001 396.56L3.27001 396.54L3.17001 396.44L3.12001 396.39L3.07001 396.31L3.00001 396.14L2.97001 396.09L2.93001 396.03L2.83001 395.93L2.81001 395.9V395.88L2.79001 395.81L2.69001 395.66L2.45001 395.37L2.42001 395.32L2.40001 395.22L2.42001 395.15L2.49001 395.02L2.63001 394.83L2.67001 394.76L2.71001 394.7L2.74001 394.64L2.76001 394.58L2.77001 394.5L2.79001 394.4V394.2L2.80001 394.12L2.82001 394.06L2.83001 394.03L2.88001 393.94L3.01001 393.75L3.09001 393.62L3.13001 393.52L3.15001 393.46V393.4L3.13001 393.34L3.10001 393.31L3.05001 393.25L2.99001 393.2L2.93001 393.13L2.89001 393.07L2.83001 392.98L2.80001 392.93L2.77001 392.86V392.8L2.75001 392.7L2.76001 392.62L2.75001 392.56L2.73001 392.52L2.69001 392.47L2.63001 392.42L2.55001 392.37L2.45001 392.32L2.38001 392.27L2.31001 392.22L2.25001 392.16L2.21001 392.12L2.18001 392.07L2.15001 392.03V391.92L2.17001 391.88L2.19001 391.8L2.21001 391.72V391.66L2.19001 391.62L2.18001 391.57L2.12001 391.45L2.07001 391.37L2.02001 391.31L1.87001 391.15L1.78001 391.05L1.72001 390.9L1.70001 390.72V390.54L1.54001 390.38L1.46001 390.33L1.36001 390.28L1.32001 390.21L1.28001 390.04L1.21001 389.89L1.19001 389.83L1.24001 389.73L1.21001 389.57L1.22001 389.33L1.23001 389.19L1.26001 389.12V388.78L1.22001 388.71L1.19001 388.59V388.45L1.20001 388.32L1.22001 388.22L1.30001 388.07L1.31001 387.97L1.25001 387.81L1.16001 387.69L1.09001 387.52L1.07001 387.38V387.32L1.10001 387.2L1.24001 387L1.32001 386.9L1.38001 386.67L1.44001 386.57L1.49001 386.53L1.53001 386.48V386.43L1.54001 386.34V386.23L1.56001 386.14L1.63001 385.99L1.78001 385.68L1.88001 385.27V384.85L1.84001 384.72L1.75001 384.43L1.59001 384.1V384.04L1.60001 383.97L1.67001 383.81L1.72001 383.73L1.77001 383.65L1.84001 383.58L1.91001 383.53L1.99001 383.49L2.46001 383.33L2.67001 383.26L2.79001 383.21L2.91001 383.15L3.02001 383.06L3.15001 382.89L3.27001 382.72L3.35001 382.58L3.43001 382.42L3.53001 382.14L3.55001 382.09L3.75001 381.49L3.87001 381.04L3.90001 380.88L3.98001 380.62L4.08001 380.25L4.21001 379.86L4.42001 379.12L4.59001 378.37L4.65001 378.12L4.69001 377.87L4.72001 377.77V377.68L4.71001 377.58L4.66001 377.45L4.63001 377.33L4.61001 377.22V377.12L4.67001 376.77L4.77001 376.6L4.82001 376.55L4.87001 376.5L4.95001 376.42L5.18001 376.28L5.33001 376.09L5.46001 375.81L5.73001 375.21L5.79001 375.04L5.82001 374.97L5.83001 374.87L5.82001 374.69L5.77001 374.56L5.73001 374.46L5.72001 374.33V374.17L5.79001 374.02L5.97001 373.85L6.05001 373.74L6.08001 373.56L5.98001 373.32L5.88001 373.09L5.74001 372.94L5.68001 372.9L5.58001 372.86L5.50001 372.83L5.47001 372.82H5.39001L5.34001 372.83H5.26001L5.15001 372.84H4.96001L4.90001 372.86L4.82001 372.88L4.75001 372.91L4.69001 372.94L4.56001 373.03L4.50001 373.06L4.48001 373.07H4.38001L4.35001 373.03L4.34001 372.95L4.33001 372.9L4.32001 372.81V372.72L4.33001 372.68L4.35001 372.64L4.37001 372.59L4.46001 372.46L4.56001 372.31L4.67001 372.12L4.79001 371.98L4.89001 371.91L4.97001 371.88L5.14001 371.78L5.22001 371.74L5.25001 371.72H5.36001L5.44001 371.7L5.50001 371.65L5.53001 371.59V371.5L5.50001 371.43V371.35L5.51001 371.26L5.53001 371.07L5.48001 370.92L5.45001 370.73L5.47001 370.62V370.46L5.34001 370.19V370.15L5.46001 370.06L5.58001 369.96L5.68001 369.8V369.77L5.67001 369.74L5.57001 369.56L5.50001 369.44L5.45001 369.25L5.41001 369.1L5.39001 368.87L5.42001 368.71L5.48001 368.5L5.45001 368.3L5.37001 368.11L5.34001 368L5.36001 367.9V367.85L5.40001 367.67L5.35001 366.98L5.36001 366.78L5.38001 366.56L5.40001 366.52L5.44001 366.47L5.46001 366.45H5.47001L5.49001 366.44L5.50001 366.42L5.52001 366.39L5.54001 366.36L5.56001 366.34L5.59001 366.32L5.61001 366.3L5.63001 366.27L5.65001 366.25L5.66001 366.22L5.68001 366.2L5.69001 366.18L5.71001 366.16L5.73001 366.14L5.75001 366.12L5.77001 366.1L5.79001 366.08L5.82001 366.06L5.84001 366.04L5.86001 366.01L5.88001 365.99L5.91001 365.96L5.93001 365.94L5.95001 365.92L5.97001 365.91V365.9H6.00001L6.02001 365.89H6.04001L6.06001 365.88L6.08001 365.87L6.10001 365.86L6.12001 365.84H6.14001L6.15001 365.82L6.16001 365.81V365.8L6.17001 365.78L6.18001 365.76L6.19001 365.75V365.73L6.20001 365.71L6.21001 365.69V365.68L6.22001 365.66V365.56L6.23001 365.53V365.48L6.24001 365.44L6.25001 365.42L6.26001 365.39V365.16L6.24001 365.13V364.94L6.25001 364.91L6.26001 364.87V364.83L6.28001 364.8L6.30001 364.77L6.32001 364.75L6.34001 364.72L6.36001 364.69L6.39001 364.67L6.40001 364.65H6.42001L6.44001 364.64H6.46001L6.49001 364.62H6.53001L6.57001 364.6L6.62001 364.59L6.65001 364.58L6.69001 364.55L6.72001 364.52L6.74001 364.49L6.76001 364.45L6.78001 364.4L6.80001 364.35L6.83001 364.27L6.85001 364.23L6.86001 364.2L6.87001 364.19L6.88001 364.18L6.89001 364.17L6.90001 364.14L6.91001 364.1L6.92001 364.08L6.94001 364.04L6.96001 364L6.97001 363.96L6.98001 363.93L6.99001 363.88L7.00001 363.84L7.02001 363.79V363.74L7.04001 363.7V363.66L7.06001 363.6L7.07001 363.55L7.08001 363.5V363.46L7.09001 363.43V363.26L7.07001 363.23L7.06001 363.18L7.05001 363.14L7.04001 363.1V363.07L7.03001 363.03V362.97L7.02001 362.94L7.01001 362.91V362.88L6.99001 362.86V362.69L6.98001 362.66V362.62L6.99001 362.58L7.00001 362.54L7.02001 362.51L7.03001 362.48L7.05001 362.46L7.07001 362.44L7.09001 362.43L7.12001 362.4L7.17001 362.38H7.21001L7.24001 362.35L7.26001 362.33L7.27001 362.32L7.28001 362.3L7.29001 362.29L7.30001 362.26V362.09L7.31001 362.05L7.32001 362.01V361.98L7.34001 361.95V361.94L7.36001 361.92L7.38001 361.9L7.40001 361.88L7.43001 361.86L7.46001 361.83L7.50001 361.79L7.54001 361.75L7.59001 361.71L7.63001 361.69L7.66001 361.67L7.68001 361.64H7.70001L7.72001 361.63H7.77001L7.80001 361.62L7.82001 361.61L7.84001 361.59L7.86001 361.57L7.87001 361.56L7.89001 361.53L7.92001 361.51L7.95001 361.48L8.01001 361.43L8.06001 361.38L8.09001 361.34L8.12001 361.31L8.17001 361.27L8.19001 361.25V361.23L8.20001 361.21V361.15L8.19001 361.13V361.1L8.20001 361.07L8.22001 361.04L8.24001 361L8.25001 360.97L8.27001 360.92L8.30001 360.86L8.32001 360.79L8.34001 360.74L8.36001 360.69L8.38001 360.64L8.39001 360.6V360.56L8.40001 360.46L8.43001 360.39L8.47001 360.35L8.52001 360.32L8.55001 360.3L8.58001 360.2L8.62001 360.1L8.65001 360.01L8.71001 359.94L8.80001 359.91L8.88001 359.88L8.99001 359.81L9.07001 359.74L9.10001 359.69L9.13001 359.63L9.20001 359.56L9.25001 359.49L9.31001 359.42L9.35001 359.32L9.40001 359.26V359.19L9.42001 359.16L9.44001 359.15L9.47001 359.14L9.57001 359.07L9.65001 359.04L9.71001 359.02L9.76001 359.01H9.83001L9.91001 358.98L9.95001 358.9L9.96001 358.8L9.97001 358.78L10 358.73L10.01 358.69H10.04L10.09 358.65L10.14 358.55L10.19 358.48L10.24 358.42L10.29 358.34V358.22L10.26 358.09V357.91L10.28 357.84L10.34 357.76L10.38 357.69L10.44 357.64L10.52 357.61H10.72L10.77 357.55L10.8 357.48L10.78 357.4L10.73 357.33L10.66 357.27L10.63 357.2L10.6 357.14L10.58 357.09V356.98L10.61 356.94L10.63 356.92L10.67 356.9H10.72L10.76 356.87L10.81 356.8L10.85 356.73L10.9 356.67L10.93 356.64L10.98 356.61L11.04 356.57L11.14 356.54L11.21 356.53H11.26L11.37 356.55L11.48 356.54H11.64L11.69 356.51L11.73 356.47L11.79 356.48L11.86 356.55L11.92 356.64L12.01 356.73L12.09 356.81L12.13 356.87V357L12.15 357.05V357.1L12.16 357.12L12.21 357.13L12.25 357.15L12.29 357.19L12.36 357.22L12.42 357.23L12.47 357.22H12.65L12.7 357.24L12.76 357.23L12.82 357.21L12.87 357.2L12.92 357.17L13 357.14L13.08 357.12H13.16L13.17 357.13L13.2 357.14H13.27L13.31 357.12L13.36 357.08L13.41 357.04L13.46 357.01L13.48 356.98L13.51 356.94L13.53 356.9V356.84L13.51 356.78L13.48 356.68L13.46 356.62V356.5L13.5 356.46L13.54 356.43L13.57 356.41L13.6 356.38H13.7L13.76 356.39L13.81 356.4L13.86 356.44L13.92 356.5L13.95 356.54L13.99 356.58L14.02 356.61V356.63L14.04 356.65L14.09 356.67L14.14 356.7H14.22L14.26 356.67L14.33 356.62L14.38 356.63H14.41L14.44 356.65H14.5L14.55 356.66L14.62 356.68L14.68 356.69L14.75 356.71H14.88L15.01 356.68L15.1 356.62L15.16 356.57L15.23 356.5L15.28 356.47L15.32 356.42L15.4 356.37L15.44 356.32L15.46 356.29L15.47 356.22V356.08L15.48 356.03L15.54 355.98L15.61 355.94L15.63 355.84V355.75L15.64 355.65L15.67 355.55L15.71 355.49L15.72 355.43V355.11L15.73 355.06L15.75 355.03L15.79 355L15.83 354.97L15.91 354.94L16.01 354.9L16.09 354.93H16.14L16.24 354.9L16.34 354.82L16.46 354.73L16.58 354.61L16.68 354.47L16.74 354.37L16.82 354.31L16.97 354.26H17.07L17.14 354.3L17.19 354.33L17.22 354.36L17.26 354.35L17.36 354.3L17.43 354.27L17.5 354.21L17.57 354.15L17.67 354.07L17.75 354.04H17.93L18.01 354.07L18.15 354.15L18.28 354.25L18.31 354.27L18.37 354.31L18.47 354.32H18.57L18.69 354.29L18.85 354.22L18.99 354.14L19.12 354.04L19.22 353.95L19.33 353.9L19.41 353.84L19.44 353.77L19.46 353.68L19.5 353.58L19.6 353.54L19.72 353.48L19.8 353.45L19.85 353.43L20.02 353.4H20.16L20.29 353.38L20.39 353.35L20.56 353.25L20.7 353.18L20.88 353.12L21.01 353.08H21.06L21.12 353.12L21.27 353.26L21.35 353.36L21.41 353.46L21.48 353.54L21.58 353.59H21.68L21.72 353.55L21.82 353.39L21.88 353.36H21.98L22.05 353.35L22.09 353.3L22.18 353.16L22.26 353.1L22.37 353.07H22.64L22.72 353.03L22.8 352.93L22.84 352.9H22.94L23.01 352.94H23.18L23.26 352.89L23.32 352.88L23.35 352.89L23.42 352.92L23.56 353.02L23.63 353.1L23.73 353.2L23.79 353.23H23.94L24 353.17L24.05 353.1L24.07 353L24.09 352.92L24.11 352.85L24.13 352.77L24.11 352.61L24.09 352.41V352.23L24.11 352.13L24.13 352.07L24.16 352.05L24.25 351.99L24.31 351.97L24.41 351.95L24.57 351.98L24.7 352.01L24.79 352.02L24.87 352.01L24.97 351.99L25.06 351.96L25.12 351.93L25.21 351.87L25.25 351.77L25.31 351.73L25.41 351.66L25.54 351.55L25.63 351.49L25.78 351.42L25.9 351.36L25.97 351.3L26.11 351.21L26.19 351.12L26.29 351.1L26.41 351.09L26.63 351.1L26.73 351.14L26.83 351.11L26.95 351.1L27.01 351.08L27.15 351.1L27.29 351.13H27.39L27.49 351.17H27.6L27.66 351.19L27.74 351.22L27.77 351.32V351.42L27.82 351.46L27.88 351.49H28.08L28.23 351.46L28.43 351.43L28.52 351.41L28.64 351.37L28.74 351.34L28.82 351.35L28.95 351.4L29.07 351.48L29.22 351.52L29.26 351.5L29.34 351.45L29.39 351.41L29.44 351.4L29.52 351.32L29.6 351.25L29.67 351.17L29.71 351.13L29.88 351.01L29.98 350.98L30.04 350.93L30.14 350.86L30.24 350.76L30.39 350.68L30.56 350.58H30.6L30.66 350.53L30.76 350.51L30.89 350.52L31.01 350.55L31.08 350.57H31.15L31.19 350.56L31.21 350.53L31.27 350.43L31.32 350.37L31.39 350.35H31.57L31.66 350.39L31.73 350.44L31.81 350.47L31.88 350.48L31.96 350.5L32.02 350.52H32.11L32.21 350.49H32.37L32.44 350.52H32.53L32.61 350.48L32.65 350.45L32.69 350.39L32.7 350.38L32.77 350.37L32.95 350.4L33.1 350.43H33.31L33.37 350.45L33.42 350.42L33.57 350.32L33.63 350.22L33.65 350.15V350.09L33.63 350.02L33.58 349.92L33.48 349.79L33.44 349.72V349.64L33.45 349.58L33.49 349.53L33.55 349.45L33.67 349.35L33.8 349.29L33.93 349.19L33.95 349.15L33.99 349.11L34.05 349.05L34.13 349L34.18 348.98L34.25 348.94L34.31 348.9L34.35 348.88L34.47 348.81L34.53 348.74L34.58 348.7L34.63 348.66L34.71 348.62L34.76 348.58L34.82 348.56L34.88 348.52L34.95 348.49L35.03 348.46L35.12 348.44L35.22 348.43H35.3L35.4 348.45L35.53 348.49L35.67 348.51L35.8 348.53H35.94L36.1 348.54H36.18L36.28 348.57H36.36L36.44 348.59L36.54 348.58H36.63L36.71 348.59L36.81 348.62L36.93 348.61L37 348.59L37.12 348.57L37.26 348.6L37.37 348.65L37.5 348.74L37.6 348.69L37.73 348.64L37.83 348.6L37.92 348.58H38.19L38.29 348.54L38.43 348.43L38.53 348.4L38.65 348.38L38.78 348.36L38.88 348.32L38.98 348.23L39.08 348.12L39.15 348.02L39.17 347.95L39.22 347.92L39.31 347.89H39.41L39.58 347.88L39.71 347.85L39.82 347.81L39.92 347.8H40.4L40.48 347.82L40.57 347.86L40.65 347.89L40.73 347.92L40.82 347.94L40.91 347.98L40.98 347.99L41.08 348.01L41.18 348.04L41.3 348.06H41.39L41.47 348.03L41.54 348H41.7L41.76 348.03H41.83L41.9 348.02L41.92 348.01H41.93L42 347.95L42.02 347.9V347.86L42.08 347.82L42.14 347.78L42.2 347.74L42.25 347.73H42.36L42.5 347.72H42.73L42.83 347.74L42.92 347.76H43L43.14 347.8L43.25 347.84L43.3 347.85L43.38 347.86L43.41 347.87L43.47 347.9L43.5 347.92L43.54 347.95L43.61 348L43.7 348.06L43.74 348.09H43.9L43.94 348.11L44 348.13L44.1 348.15H44.14L44.19 348.17L44.23 348.19L44.24 348.21L44.26 348.24L44.3 348.27L44.35 348.28H44.55L44.57 348.29H44.71L44.74 348.28L44.76 348.25L44.78 348.24H44.83L44.86 348.22L44.89 348.2L44.92 348.18L44.95 348.16L45.02 348.14L45.15 348.12L45.45 348.08L45.56 348.01L45.66 347.91L45.74 347.83H45.76L45.81 347.79L45.97 347.75H46.09L46.22 347.82L46.37 347.95L46.46 348.09L46.51 348.16L46.62 348.23L46.72 348.28L46.8 348.3H47.01L47.08 348.28L47.13 348.27H47.16L47.24 348.25H47.29H47.43L47.47 348.26L47.52 348.27L47.57 348.26L47.61 348.23L47.71 348.2L47.81 348.16L47.91 348.1L48.04 348.05L48.12 348L48.18 347.92L48.2 347.85L48.23 347.79L48.25 347.71M48.25 347.71L48.23 347.74L48.19 347.77L48.15 347.8L48.11 347.83L48.06 347.84L48.03 347.85H47.89L47.82 347.86L47.72 347.89L47.66 347.91L47.63 347.92L47.61 347.94L47.59 347.97L47.56 348L47.54 348.03L47.53 348.06L47.51 348.09L47.47 348.12L47.44 348.15L47.4 348.16H47.36L47.33 348.21L47.29 348.24M48.25 347.71L48.31 347.53L48.35 347.39L48.4 347.23L48.46 347.1L48.56 346.93L48.74 346.7L49 346.4L49.2 346.16L49.35 346.01L49.55 345.85L49.7 345.73L49.82 345.63L49.97 345.48L50.13 345.34L50.28 345.18L50.33 345.13L50.38 345.09L50.51 345.01L50.59 344.98L50.68 344.96L50.8 344.94L51 344.9L51.1 344.89L51.25 344.86L51.61 344.76L52.11 344.61L52.24 344.55L52.39 344.43L52.59 344.31L52.69 344.25L52.93 344.16L53.04 344.09L53.11 344.03L53.25 343.9L53.33 343.85L53.39 343.82L53.47 343.81H53.62L53.66 343.79L53.78 343.76L53.85 343.75L53.9 343.74H53.95L54.12 343.71H54.86L55.08 343.73L55.34 343.71L55.57 343.65L55.73 343.57L55.89 343.41L55.97 343.28L56.02 343.18L56.2 342.8L56.36 342.41L56.43 342.11L56.28 341.99L56.18 341.92L56.08 341.78L56.28 341.44L56.32 341.34V341.27L56.3 341.17L56.23 340.97L56.21 340.9L56.19 340.86L56.17 340.78L56.07 340.68L56.03 340.61L55.98 340.56L55.76 340.42L55.69 340.34L55.62 340.24L55.59 340.18V340.12M56.09 341.78L55.82 341.66L55.8 341.61L55.77 341.54L55.75 341.47L55.65 340.94L55.6 340.9L55.59 340.72L55.56 340.53L55.53 340.4L55.55 340.34L55.58 340.12L55.61 339.97L55.66 339.84L55.73 339.74L55.93 339.55L56.03 339.45H56.09L56.16 339.37L56.21 339.3L56.27 339.23L56.35 339.13L56.39 339.07L56.45 338.97L56.51 338.91L56.59 338.79L56.66 338.69L56.67 338.67L56.73 338.6L56.77 338.52L56.79 338.45L56.83 338.37L56.86 338.34L56.92 338.31L57.05 338.25L57.17 338.18L57.31 338.09L57.42 338.01L57.54 337.91L57.72 337.75L57.78 337.67L57.85 337.59L57.9 337.47L57.94 337.4L57.96 337.37L58.02 337.29L58.04 337.26L58.1 337.21L58.21 337.14L58.32 337.09L58.42 337.06L58.44 337.05L58.53 337.02L58.63 337.01L58.75 337H58.88L59.09 337.06L59.26 337.13L59.36 337.16H59.43L59.61 337.11L59.68 337.05L59.75 336.99L59.83 336.9L59.94 336.83L60.04 336.77L60.13 336.71L60.27 336.68L60.55 336.61L60.84 336.52L60.95 336.49H60.98L61.03 336.44L61.09 336.42L61.17 336.38L61.26 336.34L61.31 336.3L61.36 336.27L61.39 336.24L61.45 336.2L61.48 336.14V336.03L61.46 335.91V335.81L61.48 335.72L61.5 335.64L61.54 335.57L61.58 335.47L61.64 335.41L61.77 335.35L61.88 335.31L61.98 335.3L62.15 335.17L62.19 335.07L62.23 334.97V334.92L62.26 334.86L62.33 334.69L62.36 334.55V334.43L62.33 334.33L62.27 334.24L62.17 334.04L62.01 333.78L61.99 333.73V333.7L62.01 333.67L62.03 333.58V333.43L62.06 333.35L62.09 333.27L62.18 333.22L62.25 333.18L62.31 333.14L62.41 333.04L62.58 332.96L62.71 332.91H62.73L62.83 332.84L62.94 332.76L63.02 332.68L63.08 332.62L63.12 332.59L63.2 332.55L63.24 332.53L63.27 332.51L63.33 332.47L63.4 332.41L63.46 332.36L63.54 332.29L63.61 332.21L63.68 332.11L63.71 332.06L63.81 331.87L63.86 331.74L63.89 331.54L63.88 331.4L63.82 331.25L63.76 331.13L63.66 331.06L63.59 331L63.46 330.9L63.41 330.84V330.4L63.4 330.2V329.77L63.39 329.65L63.36 329.55V329.48L63.35 329.44L63.38 329.32L63.44 329.22L63.49 329.14L63.58 329.07L63.68 329L63.78 328.9L63.88 328.77L63.98 328.63L64.04 328.55L64.05 328.51L64.06 328.42V328.35L64.03 328.25L63.99 328.17L63.92 328.07L63.79 327.89L63.66 327.76L63.63 327.72L63.59 327.64V327.54L63.58 327.41L63.6 327.33L63.62 327.25L63.66 327.17L63.72 327.09L63.79 327.01L63.85 326.91L63.91 326.84L63.95 326.77L64.01 326.67L64.04 326.59V326.46L64.02 326.4L63.99 326.35L63.95 326.32L63.89 326.28L63.81 326.26H63.58L63.48 326.24H63.39L63.19 326.21L63.05 326.17L62.96 326.12L62.84 326.03L62.76 325.96L62.68 325.86L62.6 325.77L62.54 325.67L62.51 325.57L62.46 325.42L62.44 325.29V325.14L62.52 324.89L62.66 324.63L62.73 324.49L62.77 324.36V324.27L62.73 324.1L62.67 324L62.61 323.94L62.56 323.89L62.52 323.83L62.5 323.8L62.44 323.67L62.39 323.57L62.38 323.5L62.37 323.42L62.36 323.34L62.32 323.24L62.3 323.18L62.32 323.14L62.37 323.08L62.45 323.02L62.53 322.98L62.58 322.95H62.62L62.72 322.94L62.86 322.89L62.97 322.86L63.01 322.82L63.07 322.76L63.14 322.69L63.19 322.64L63.22 322.57L63.24 322.5L63.26 322.38L63.28 322.28L63.3 322.15V322.03L63.29 321.93V321.91L63.27 321.83L63.24 321.73L63.19 321.64L63.11 321.54L63.02 321.46L62.94 321.38L62.76 321.24L62.64 321.14L62.51 321.04L62.43 320.97L62.36 320.89L62.26 320.79L62.18 320.66L62.11 320.48L61.98 320.21L61.88 319.99L61.85 319.89L61.81 319.79L61.76 319.61L61.66 319.44L61.6 319.29L61.52 319.09L61.47 318.96L61.43 318.88L61.38 318.78L61.28 318.69L61.18 318.59L61.08 318.51L61 318.4L60.89 318.3L60.79 318.22L60.78 318.17L60.68 318.07L60.61 318.01L60.49 318.02L60.42 317.99L60.39 317.9L60.35 317.75L60.33 317.6L60.34 317.5L60.35 317.45L60.39 317.35V317.27L60.31 317.13L60.18 316.95L60.08 316.77L59.98 316.64L59.93 316.54V316.51L59.9 316.44L59.88 316.32L59.86 316.15V315.93L59.88 315.73L59.9 315.69L59.95 315.64L59.97 315.6L59.99 315.53L60.03 315.35L60.13 315.17L60.15 315.07L60.19 314.87V314.75L60.17 314.62V314.46L60.14 314.21L60.1 314.03L60.04 313.83L59.99 313.73L59.95 313.68L59.88 313.58L59.76 313.45L59.54 313.27L59.28 313.1L59.16 313.03L59 312.84L58.9 312.7L58.8 312.5L58.76 312.37V312.22L58.78 312.07L58.77 311.94L58.74 311.86L58.65 311.69L58.55 311.41L58.54 311.39L58.46 311.19L58.43 311.11L58.3 310.78L58.24 310.63V310.58L58.19 310.45L58.16 310.3L58.07 310.07L57.96 309.83L57.89 309.67L57.79 309.39L57.71 309.19L57.67 309.02L57.66 308.88V308.6L57.71 308.47L57.81 308.33L58.01 308.08L58.05 308.05L58.08 308.04L58.11 308.02L58.2 307.86L58.25 307.7L58.28 307.42V307.23L58.29 307.19L58.28 307.09L58.25 306.97L58.2 306.79L58.11 306.56L58.07 306.36L57.97 306.18L57.85 306.11L57.77 306.02L57.73 305.97V305.69L57.75 305.62L57.77 305.52L57.84 305.32L57.94 305.17L58.04 305.06L58.14 304.97L58.37 304.84L58.45 304.8L58.55 304.72L58.65 304.62L58.75 304.46L58.76 304.41L58.8 304.28L58.81 304.14V303.98L58.8 303.81L58.75 303.67L58.68 303.53L58.62 303.42L58.48 303.26L58.24 303.05L58.2 303L58.13 302.86L58.1 302.71L58.14 302.52L58.19 302.4L58.27 302.3L58.35 302.2L58.46 302.11L58.51 302.09L58.59 302.07L58.67 302.03L58.84 301.94L58.99 301.81L59.13 301.64L59.18 301.57L59.21 301.5L59.23 301.42V301.09L59.21 301L59.17 300.86L59.13 300.77L59.07 300.69L58.89 300.55L58.69 300.43L58.64 300.4L58.48 300.34L58.41 300.3L58.23 300.08L58.16 299.96L58.11 299.83L58.08 299.66L58.06 299.48L58.08 299.36L58.11 299.25L58.16 299.16L58.2 299.08L58.27 298.98L58.34 298.9L58.6 298.72L58.76 298.62L58.81 298.57L58.86 298.51L58.93 298.39L59 298.26L59.07 298V297.91L59.05 297.76L58.92 297.51L58.67 297.18L58.53 296.88L58.47 296.74L58.45 296.67V296.62L58.42 296.22L58.39 296.07L58.33 295.92L58.25 295.77L58.13 295.64L57.68 295.31L57.58 295.23L57.41 295.1L57.33 294.93L57.29 294.83V294.74L57.25 294.59V294.34L57.28 294.18L57.32 294.07L57.39 293.91L57.44 293.76L57.45 293.46L57.43 293.21L57.4 293.04L57.33 292.87L57.28 292.77L57.18 292.66L57.07 292.55L56.46 292.16L56.16 292.06L55.91 291.98L55.24 291.88L54.74 291.78L54.51 291.64L54.4 291.54L54.33 291.44L54.31 291.41L54.29 291.28V291.15L54.32 291L54.3 290.43L54.2 289.93L54.18 289.77L54.14 289.65L54.11 289.57L54 289L53.99 288.76L54.09 288.13V288.12L54.12 287.96L54.15 287.9L54.19 287.6L54.26 287.46L54.33 287.3L54.37 287.22L54.5 287.1L54.61 287.06L54.76 287.04L54.9 287.02L55.38 287.07H55.53L55.7 287.06L55.85 286.98L55.98 286.85L56.1 286.66L56.15 286.59L56.17 286.54L56.22 286.44L56.25 286.37V286.17L56.21 286.09L56.16 285.94L56.02 285.84L55.95 285.78L55.35 285.5L55.09 285.4L54.89 285.3L54.76 285.2L54.69 285.1L54.65 284.97V284.71L54.67 284.51L54.77 284.17L54.82 284.05L54.87 283.98L55.01 283.81L55.11 283.71L55.21 283.56L55.35 283.38L55.38 283.12L55.52 282.44L55.6 282.01L55.62 281.73V281.64L55.7 281.51L56.17 280.91L56.22 280.84L56.34 280.7L56.45 280.48L56.52 280.23L56.54 279.99L56.55 279.75L56.53 279.62L56.48 279.44L56.36 279.25L56.29 279.2L56.19 279.16L55.99 279.1H55.89L55.63 279.17H55.31L55.19 279.16L55.08 279.13L54.93 279.11L54.73 279.05L54.64 279L54.54 278.94L54.4 278.8L54.3 278.64L54.2 278.44V278.37L54.19 278.27V277.91L54.17 277.83L54.14 277.75L54.1 277.66L54.04 277.58L53.67 277.25L53.6 277.13L53.42 276.99L53.28 276.86L53.24 276.81L53.21 276.75L53.2 276.65L53.22 276.53L53.27 276.38L53.55 275.88L53.56 275.75V275.58L53.46 275.28L53.4 275.2L53.29 275.08L53.24 275.04L52.82 274.74L52.31 274.41L52.21 274.33L52.13 274.23L52.08 274.09L52.04 273.82L52.08 273.69L52.18 273.6L52.22 273.44V273.24L52.16 273.05L52.11 272.9L52.07 272.83L52.01 272.77L51.93 272.7L51.85 272.66H51.7L51.48 272.6L51.2 272.55L50.96 272.5L50.6 272.43L50.32 272.33L50.18 272.21L50.08 272.04L50.01 271.84L49.98 271.66V271.53L49.96 271.47L49.92 271.39L49.84 271.31L49.76 271.25L49.66 271.23H49.47L49.38 271.25L49.31 271.28L49.21 271.32L49.13 271.34L49.06 271.36H48.92L48.85 271.33L48.78 271.29L48.73 271.24L48.71 271.17V271.07L48.72 270.98L48.73 270.93L48.75 270.88L48.77 270.8L48.87 270.56L48.91 270.5L48.97 270.44L49.07 270.29L49.17 270.2L49.3 270.1L49.35 270.06L49.42 270.05L49.65 269.98L49.92 269.89L50.29 269.75L50.36 269.71L50.41 269.67L50.45 269.63L50.49 269.57L50.53 269.51L50.57 269.39L50.6 269.23V269.1L50.57 268.97L50.55 268.87L50.5 268.77L50.34 268.47L50.24 268.33L50.11 268.17L49.97 268.02L49.79 267.88L49.56 267.73L49.31 267.55L49.21 267.5L49.14 267.48L49.07 267.45L49.02 267.41L48.96 267.34L48.89 267.21L48.87 267.14V267.09L48.91 266.92L48.99 266.7L49.04 266.52V266.44L49.05 266.32V265.92L49 265.71L48.95 265.55L48.75 265.04L48.71 264.94L48.66 264.84L48.58 264.69L48.48 264.49L48.38 264.37L48.17 264.25L47.98 264.2L47.82 264.16L47.68 264.13L47.45 264.06L47.16 263.96L46.98 263.86L46.82 263.76L46.67 263.66L46.56 263.6L46.52 263.58L46.44 263.52L46.34 263.46L46.24 263.39L46.09 263.27L46.01 263.17L45.98 263.07L45.95 262.86V262.64L45.98 262.45V262.34L45.93 262.22L45.81 262.12L45.56 261.96L45.45 261.89L45.35 261.82L45.03 261.6L44.88 261.44L44.78 261.26L44.7 261.09L44.65 260.95L44.64 260.92L44.58 260.76L44.45 260.61L44.33 260.52L44.15 260.43L43.86 260.28L43.73 260.22L43.55 260.06L43.42 259.84L43.35 259.64L43.32 259.54L43.29 259.36L43.26 259.23L43.18 259.14L43.08 259.08L42.98 259.03L42.87 259.02L42.76 259.04L42.64 259.14L42.55 259.24H42.46L42.36 259.2L42.33 259.13V258.97L42.36 258.85L42.37 258.8L42.54 258.55L42.59 258.42L42.56 258.26L42.6 258.14L42.67 257.99L42.69 257.93L42.73 257.82L42.79 257.68L42.81 257.56L42.78 257.48L42.72 257.42V257.4L42.67 257.37L42.4 257.15L42.25 257L42.05 256.87L41.59 256.6L41.45 256.52L41.29 256.43L41.15 256.37L41.04 256.34L40.96 256.3L40.87 256.25H40.67L40.56 256.28L40.41 256.35L40.27 256.44L40.1 256.58L40.04 256.62H39.97L39.9 256.58L39.82 256.55L39.74 256.46L39.64 256.31L39.49 256.17L39.4 256.1L39.35 256.06L39.25 255.98L39.18 255.93L39.09 255.87L38.92 255.75L38.84 255.71L38.81 255.65L38.55 255.3L38.48 255.2L38.2 254.78L38.06 254.5L38.03 254.45L38 254.41L37.93 254.35L37.85 254.29L37.68 254.19L37.61 254.15L37.57 254.12L37.56 254.1L37.54 254.06L37.51 253.84V253.53L37.52 253.46L37.55 253.35L37.59 253.28L37.62 253.22L37.67 253.16L37.71 253.12L37.74 253.08L37.75 253.05V253L37.77 252.9L37.71 252.88L37.64 252.86L37.57 252.82L37.49 252.79L37.45 252.77L37.42 252.76L37.4 252.7L37.41 252.65V252.33L37.38 251.79L37.41 251.63L37.46 251.39L37.48 251.29V251.1L37.46 251.03V250.99L37.4 250.91L37.36 250.89H37.3L37.23 250.94L37.14 250.99H37.09L37.02 250.96L36.99 250.87L37.01 250.69L36.64 249.33L36.34 248.28L36.2 247.62L36.18 247.32M36.18 247.32L36.16 247.07L36.12 246.96L36.07 246.79L35.97 246.59L35.84 246.45L35.74 246.4L35.69 246.36M36.18 247.32L36.11 247.28L36.04 247.1L35.94 246.94L35.76 246.66L35.74 246.56L35.67 246.46L35.59 246.38L35.53 246.33M35.69 246.36L35.59 246.34M35.69 246.36V246.22L35.68 246.19L35.66 246.11V246.05L35.64 246.02V245.99L35.62 245.96V245.93L35.63 245.92L35.65 245.9V245.64L35.64 245.61L35.61 245.56V245.52L35.58 245.49L35.64 245.44L35.69 245.34L35.72 245.26L35.73 245.2V244.99L35.75 244.93L35.76 244.89V244.86L35.77 244.84V244.79L35.78 244.77L35.79 244.72V244.7L35.8 244.69L35.79 244.66L35.77 244.63L35.75 244.61L35.72 244.59L35.68 244.58L35.64 244.56L35.6 244.55L35.56 244.54H35.52L35.51 244.51L35.48 244.47L35.44 244.45L35.39 244.44H35.25L35.22 244.46L35.2 244.5L35.17 244.54H35.09M35.59 246.34H35.53L35.39 246.24L35.21 246.11L35.13 246.05L35.01 245.97L34.96 245.88L34.92 245.78L34.91 245.68V245.59L34.94 245.51L34.98 245.42M35.59 246.34L35.55 246.23L35.52 246.17L35.49 246.11L35.45 246.06L35.38 245.93L35.33 245.81V245.68L35.32 245.53L35.36 245.35L35.41 245.2L35.47 245.1L35.53 245.04L35.58 244.97L35.61 244.9L35.6 244.84L35.58 244.77L35.53 244.67L35.47 244.6L35.44 244.58L35.38 244.56H35.32L35.24 244.59L35.19 244.61L35.14 244.6L35.09 244.54M35.09 244.54L35.08 244.53H35.07L35.05 244.51L34.99 244.43V244.42L34.98 244.37L34.97 244.36V244.34H34.96L34.93 244.32H34.91V244.31L34.9 244.29L34.89 244.27L34.82 244.37L34.76 244.41M34.98 245.42L35.06 245.3L35.09 245.16V245.03L35.01 244.88L34.84 244.71L34.74 244.61L34.61 244.51L34.38 244.43M34.98 245.42L34.9 245.32L34.86 245.29L34.82 245.26L34.8 245.24M34.38 244.43L34.25 244.33L34.2 244.29L34.17 244.23L34.33 243.93L34.34 243.82L34.36 243.72V243.59M34.38 244.43L34.4 244.55M34.8 245.24L34.78 245.3L34.74 245.37L34.71 245.4L34.68 245.44L34.65 245.5L34.62 245.55L34.59 245.63V245.71M34.8 245.24L34.73 245.16L34.69 245.13H34.6L34.55 245.11L34.47 245.05L34.41 245L34.39 244.97L34.37 244.92L34.34 244.82V244.75L34.35 244.74V244.71L34.36 244.67L34.39 244.61L34.41 244.55L34.42 244.58L34.46 244.66V244.79L34.43 244.82L34.42 244.87L34.43 244.91L34.48 244.97L34.53 245L34.66 245.08L34.71 245.13M34.36 243.59L34.56 243.07L34.71 242.82L34.84 242.65L34.9 242.57L35.44 242.09L35.74 241.83L35.76 241.81L35.89 241.65M34.36 243.59L34.44 243.74L34.47 243.84L34.57 243.94L34.67 244.02L34.83 244.18L34.85 244.2L34.88 244.24H34.89V244.26M36.06 241.39L36.03 241.43L35.92 241.61L35.89 241.66L35.82 241.6L35.81 241.59L35.76 241.55V241.52L35.74 241.49L35.7 241.39L35.69 241.34L35.67 241.28V241.22L35.65 241.21V241.2L35.64 241.19V241.16L35.68 241.1L35.74 241.03L35.83 240.98L35.86 240.92L35.88 240.89V240.85L35.91 240.77L35.94 240.7L35.98 240.61L36.03 240.55L36.06 240.53L36.09 240.52L36.16 240.48L36.21 240.44L36.23 240.41L36.24 240.38L36.29 240.34L36.33 240.3L36.34 240.25L36.35 240.2L36.33 240.14V240.11L36.35 240.06L36.4 240.03L36.45 240.01H36.47L36.5 239.97L36.6 239.93H36.63L36.67 239.91L36.69 239.9L36.74 239.87H36.77L36.8 239.85L36.82 239.83H36.83L36.91 239.78L36.95 239.72L37.01 239.69H37.03L37.07 239.66L37.09 239.62L37.13 239.59L37.18 239.56L37.22 239.55H37.26L37.28 239.53H37.37L37.42 239.54H37.44L37.45 239.56H37.46L37.49 239.6M36.06 241.39L36.1 241.31L36.11 241.28L36.18 241.03M36.06 241.39L36.01 241.34L35.99 241.29V241.27L36.02 241.17L36.18 241.03M37.49 239.6L37.33 239.67L37.18 239.77L36.98 239.89L36.84 239.99L36.72 240.08L36.62 240.13L36.52 240.19L36.46 240.27L36.4 240.43L36.3 240.66L36.2 240.81L36.18 241.03M37.49 239.6L37.59 239.58L37.72 239.56L37.86 239.6L38 239.65L38.13 239.73L38.25 239.84L38.33 239.91L38.39 239.93L38.46 239.94L38.55 239.92L38.78 239.79L39.28 239.37L39.53 239.07L39.63 238.98L39.76 238.9L39.88 238.82L39.94 238.76L39.98 238.7L40.03 238.51L40.05 238.38L40.07 238.24L40.08 238.08V237.72L40.11 237.62L40.16 237.48L40.26 237.34L40.38 237.24L40.49 237.17L40.58 237.14H40.68L40.83 237.06L41.07 236.9L41.14 236.84L41.49 236.54L41.89 236L42.09 235.59L42.15 235.46L42.17 235.37L42.21 235.17L42.24 234.97V234.7L42.19 234.38L42.16 234.22L42.15 234.1V233.92L42.18 233.48L42.23 233.32L42.27 233.2L42.29 233.07L42.27 232.77L42.24 232.38L42.21 232.18L42.14 232.04L42.09 231.46L42.11 231.39L42.06 231.16L41.94 230.86L41.9 230.78L41.84 230.72L41.78 230.62L41.71 230.44L41.61 230.19L41.56 230.08L41.54 229.92V229.82L41.58 229.71L41.64 229.61L41.72 229.51L41.81 229.45L41.89 229.41H42.06L42.15 229.42H42.42L42.49 229.38L42.56 229.34L42.62 229.29L42.66 229.24L42.7 229.16L42.74 229.08L42.76 229.04L42.78 228.99L42.8 228.92V228.77L42.79 228.71L42.76 228.64L42.74 228.59L42.71 228.55L42.69 228.51L42.67 228.49L42.65 228.48H42.63L42.61 228.49L42.6 228.51L42.58 228.53L42.54 228.55L42.5 228.56H42.47L42.43 228.57H42.3L42.27 228.56L42.23 228.53L42.2 228.5L42.18 228.47L42.16 228.42L42.14 228.36V228.22L42.17 228.16L42.2 228.09L42.22 228.02L42.24 227.95L42.28 227.85L42.33 227.78L42.37 227.73L42.4 227.7L42.44 227.67L42.49 227.63L42.55 227.61L42.63 227.58L42.72 227.54L42.78 227.5L42.86 227.42L42.96 227.32L42.99 227.22L43.03 227.12L43.07 227.06L43.11 226.96L43.13 226.87L43.15 226.79V226.75L43.12 226.73L43.09 226.72L42.98 226.66L42.8 226.59L42.64 226.51L42.54 226.45L42.44 226.35L42.41 226.25V226L42.42 225.88L42.4 225.67V225.57L42.43 225.46L42.48 225.36L42.62 225.13L42.69 225.03L42.8 224.92L42.85 224.84L42.87 224.74L42.9 224.57L43.03 224.04L43.07 223.9L43.18 223.63L43.38 223.36L43.45 223.27L43.5 223.23L43.76 222.95L44.02 222.72L44.21 222.47L44.37 222.25L44.6 222.06L44.78 221.8L44.92 221.58L45.01 221.34L45.04 221.24L45.26 221.11L45.44 220.94L45.67 220.69L45.89 220.42L46.05 220.22L46.13 220.07L46.16 220.01V219.83L46.14 219.77L46.11 219.71L46.06 219.62L46.01 219.52L45.97 219.42L45.95 219.29V219.15L45.98 219.06L46.01 218.98L46.05 218.92L46.12 218.86L46.22 218.81L46.42 218.76L46.59 218.74L46.79 218.71L46.92 218.7L47.07 218.68L47.17 218.66L47.25 218.64L47.3 218.63L47.33 218.62L47.42 218.6L47.48 218.59H47.71L47.76 218.58L47.81 218.56L47.86 218.53L48.01 218.43L48.09 218.36L48.12 218.33L48.19 218.24L48.22 218.19L48.24 218.13L48.26 218.07L48.29 217.95L48.3 217.78L48.27 217.42V217.24L48.31 216.75L48.41 216.44L48.6 216.07L48.74 215.87L48.86 215.73L49.44 215.22V215.21L49.56 215.13L49.66 215.01L49.77 214.88L49.82 214.75L49.88 214.54V214.36L49.89 214.31V214.2L49.87 214.06L49.82 213.86L49.8 213.75L49.81 213.63L49.91 213.39L49.99 213.29L50.09 213.18L50.44 212.98L50.76 212.78L50.9 212.58L51.33 211.31L51.35 211.25L51.45 211.06L51.53 210.92L51.73 210.61L52.03 210.31L52.19 210.24L52.39 210.2L53.19 210.17L53.37 210.14L53.5 210.11L53.74 210.01L53.96 209.84L54.06 209.68L54.13 209.51L54.29 208.99L54.61 207.75L54.66 207.4V207.14L54.64 206.92L54.54 206.55L54.47 206.36L54.4 206.31L54.39 206.24V206.04L54.46 205.78L54.47 205.63V205.51L54.4 205.3L54.35 205L54.33 204.72V204.25L54.31 204.17L54.33 204.13L54.4 203.99L54.5 203.77L54.73 203.27L54.77 203.18L54.78 203.14L54.94 202.73V202.7L54.96 202.67L55.13 202.21V202.2L55.14 202.18L55.36 201.77L55.38 201.75L55.68 201.36L55.7 201.34L55.96 200.91L55.98 200.88L56 200.85L56.04 200.67L56.07 200.36L56.08 200.3L56.13 200.23V199.91L56.12 199.87V199.84L56.11 199.83L56.07 199.39V198.9L56.05 198.4V198.37L56.04 197.99L56.05 197.93L56.09 197.75L56.13 197.59L56.2 197.46L56.26 197.36L56.29 197.32L56.43 197.09M56.43 197.09L56.47 197.03L56.54 196.87L56.59 196.72L56.63 196.69H56.93L57.06 196.64L57.21 196.6M56.43 197.09L56.65 197.03H56.74L56.82 197.05H56.87L56.92 197.02M56.26 197.37L56.32 197.35H56.42L56.45 197.34L56.48 197.32L56.51 197.3H56.67L56.71 197.28L56.74 197.26L56.76 197.25L56.92 197.02M56.92 197.02L57.16 196.69L57.19 196.63L57.21 196.6M57.21 196.6L57.41 196.41L57.6 196.21M56.59 196.73L56.62 196.65L56.67 196.55L56.84 196.46L57 196.41L57.29 196.31L57.37 196.27L57.6 196.21M57.6 196.21L57.8 196L57.99 195.65L58.04 195.48L58.06 195.3L58.03 195.11L57.97 194.96L57.87 194.86L57.83 194.66L57.8 193.77L57.85 193.6L57.91 193.43L58.01 193.25L58.21 192.99L58.39 192.74L58.76 192.38L59.28 191.98L59.9 191.47L60.5 190.97L60.84 190.72M60.84 190.72L61.12 190.47L61.35 190.32L61.8 190L62.18 189.69L62.48 189.47L62.65 189.33L62.73 189.22L62.83 189.08L63.04 188.77L63.11 188.67L63.34 188.25L63.45 188.09L63.52 187.99L63.54 187.96L63.67 187.79L63.7 187.75L63.73 187.72L63.78 187.68L64.03 187.46L64.04 187.45L64.15 187.39M60.84 190.72H60.94L61.03 190.69L61.21 190.55L61.38 190.47L61.48 190.46L61.62 190.43L61.7 190.39L61.82 190.33L62.02 190.29L62.14 190.24L62.37 190.17L62.47 190.11L62.55 190.04L62.64 189.9L62.82 189.66L62.89 189.53L62.92 189.41L63.08 189.12L63.2 188.97L63.23 188.9L63.27 188.81L63.38 188.68L63.75 188.32L63.85 188.17L64.02 187.79L64.03 187.76L64.06 187.67L64.13 187.47L64.15 187.39M64.15 187.39L64.27 187.17L64.33 187.07L64.48 186.72L64.62 186.25L64.68 185.92L64.76 185.34L64.79 185.13L64.84 184.93L64.92 184.78L65.11 184.55L65.17 184.45L65.59 183.75L65.86 183.29L65.9 183.23L66.32 182.51L66.4 182.38L66.42 182.35L66.43 182.33L67.01 181.4L67.34 180.87L68.44 179.07L68.48 178.98L68.52 178.94L68.74 178.57L68.86 178.37L68.88 178.34L69.02 178.12L69.26 177.67L69.56 177.19L70.2 176.09L70.24 176.03L70.96 174.77L71.04 174.63L71.24 174.27L71.57 173.55L71.77 173.09L71.97 172.62L72.15 172.13L72.25 171.89L72.33 171.65L72.51 171.19L72.64 170.84L72.67 170.75V170.74L72.75 170.46L72.78 170.21L72.8 170.11V169.46L72.87 169.21L72.9 169.06L73.01 168.86L73.07 168.79L73.21 168.59L73.3 168.52L73.45 168.4L73.58 168.34L73.79 168.18L74 168.03L74.23 167.86L74.39 167.71L74.63 167.43L74.84 166.91L74.94 166.51L75.04 166.03L75.01 165.59V165.23L75.08 164.92L75.18 164.62L75.4 164.39L75.68 164.22L76.05 164.08L76.35 163.95L76.52 163.86L76.69 163.71L76.85 163.44L76.93 163.13L76.95 162.65L76.98 162.35L77.04 162.15L77.11 161.99L77.2 161.83L77.4 161.57L77.54 161.44L77.95 161.21L78.25 161.04L78.5 160.83L78.56 160.75L78.81 160.35L78.94 160.05L79.04 159.55V159.37L79.12 158.95L79.16 158.72L79.24 158.45L79.48 157.92L79.75 157.57L80.47 156.89L80.63 156.73L80.81 156.5L80.92 156.32L81.02 156.11L81.11 155.91L81.14 155.69L81.17 155.42L81.14 155.17L81.06 154.77L80.92 154.41L80.68 153.89L80.37 153.27L80.32 153.05V152.82L80.34 152.34L80.47 151.88L80.5 151.84L80.98 151.18L81.1 151.06L81.39 150.74L81.45 150.67L81.77 150.32L81.87 150.19L82.18 149.79L82.26 149.71L82.36 149.55L82.43 149.39L82.55 149.07L82.63 148.68L82.62 147.98L82.56 147.3V146.99L82.63 146.67L82.87 146.13L82.96 145.98L83.54 145.11L83.65 144.91L83.8 144.53L83.89 144.14L83.86 143.62V142.63L83.99 141.98L84.2 141.36L84.3 140.98L84.33 140.63L84.22 140.08L84.19 139.98L83.97 139.4V139.04L84.03 138.58L84.05 138.45L84.08 138.11L84.11 137.98L84.06 137.56L83.91 137.11L83.9 136.66L84.1 136.11L84.54 135.61L84.89 135.38L85.04 135.28L85.25 135L85.37 134.74L85.47 134.39L85.59 134.14L85.73 133.94L86.33 133.38L86.53 133.12L86.67 132.76L86.77 132.4L86.79 132.1V131.85L86.75 131.52L86.74 131.4L86.56 130.85L86.48 130.54L86.46 130.3L86.5 130.04L86.55 129.84L86.69 129.52L86.84 129.3L87.14 129.01L87.18 128.95L87.35 128.75L87.39 128.64L87.43 128.42L87.48 128.11L87.53 127.93L87.61 127.76L87.78 127.59L87.99 127.45L88.33 127.35L88.53 127.3L88.73 127.2L88.89 127.06L89.01 126.86L89.11 126.64L89.15 126.44V126.24L89.13 126.06L89.08 125.89L88.73 125.36L88.64 125.16L88.61 125.06L88.6 124.95V124.8L88.62 124.66L88.67 124.42L88.83 124.1L89.11 123.77L89.39 123.54L89.79 123.32L90.11 123.13L90.29 122.97L90.47 122.76L90.63 122.46L90.7 122.18L90.73 121.84L90.71 121.57L90.68 121.33L90.67 121.06L90.71 120.76L90.81 120.4L90.99 120.02L91.19 119.7L91.33 119.54L91.62 119.19L91.77 119.01L91.92 118.84L92.02 118.66L92.07 118.46L92.12 118.24L92.22 118.02L92.48 117.6L92.75 117.1L92.85 116.82L92.95 116.42L93.01 116.14L93.1 115.83L93.17 115.6L93.2 115.51L93.28 115.28L93.38 115.12L93.43 115.03L93.64 114.79L94.26 114.4L94.81 114.16L95.12 113.95L95.31 113.76L95.55 113.4L95.77 113.1L95.96 112.87L96.16 112.71L96.36 112.6L96.46 112.55L96.56 112.52L96.78 112.45L96.88 112.42L96.98 112.4L97.03 112.39H97.12L97.2 112.38L97.69 112.4L97.97 112.44L98.13 112.48L98.22 112.5L98.28 112.52L98.58 112.68L98.88 112.84L99.03 112.92L99.16 112.98L99.37 113.03L99.49 113.08L99.62 113.13L99.76 113.2L99.86 113.27L99.92 113.33L100 113.37L100.18 113.41L100.31 113.42H100.44L101.04 113.37L101.28 113.33L101.46 113.32L101.71 113.26L101.93 113.19L102.16 113.09L102.27 113.04L102.39 113H102.49L102.66 112.94L102.8 112.91L102.95 112.85L103.05 112.78L103.26 112.68L103.59 112.53L103.72 112.5L103.83 112.48L104.85 112.38L105.28 112.4L105.65 112.36H105.98L106.19 112.37L106.8 112.27L106.98 112.21H107.33L107.68 112.29L107.92 112.36H108.13L108.4 112.32L108.65 112.21L108.83 112.06L109.73 111.36L110.25 111.03L110.97 110.76L111.32 110.62L111.67 110.46L111.94 110.26L112.13 110.1L113.13 109.25L113.23 109.2L113.3 109.17L113.4 109.15L113.5 109.11L113.68 109.03L113.78 108.96L113.88 108.93L114.08 108.91H114.28L114.63 108.96L114.83 109.05L115.17 109.08H115.33L116.16 109.17L117.05 109.12L117.17 109.07L117.29 109.01L117.52 108.85L117.71 108.69L117.94 108.36L118.08 108.2L118.18 108.03L118.3 107.81L118.39 107.61L118.41 107.51L118.47 107.39L118.5 107.33L118.57 107.19L118.69 107.07L118.85 106.89L118.96 106.79L119.14 106.6L119.26 106.5L119.42 106.41L119.69 106.34L120.19 106.35L120.41 106.33L120.54 106.29L120.61 106.26L120.71 106.23L120.84 106.2L121.02 106.13L121.25 106.04L121.35 105.99L121.43 105.92L121.56 105.84L121.69 105.76L121.79 105.63L121.87 105.48L121.9 105.35V105.22L121.88 105.12L121.86 105.03L121.88 104.96L121.91 104.93L121.99 104.85L122.12 104.76L122.41 104.65L122.66 104.59L122.83 104.58L123 104.59L123.17 104.62L123.39 104.71L123.59 104.81L123.67 104.86L123.75 104.92L123.85 105.06L123.95 105.11L124.17 105.17L124.39 105.2L124.54 105.18L124.64 105.13L124.68 105.09L124.71 105.03L124.74 104.93L124.8 104.83L124.87 104.73L125.1 104.44L125.42 104.19L125.68 104.02L125.78 103.95L125.8 103.88L125.77 103.78L125.72 103.68V103.58L125.8 103.38L126.34 102.75L126.61 102.45L127.11 102.07L127.36 101.94L128.04 101.81L128.3 101.8L128.49 101.75L128.69 101.64L128.82 101.51L128.88 101.39L129.05 101.18L129.21 100.99L129.33 100.82L129.38 100.72L129.4 100.63L129.43 100.35L129.39 99.83L129.49 99.38L129.67 99.15L129.87 98.94L130.1 98.75L130.33 98.58L130.46 98.4L130.52 98.24L130.55 98.09V97.87L130.47 97.51L130.17 96.78L130.06 96.28L130.08 95.95L130.13 95.73L130.2 95.57L130.26 95.41L130.34 95.26L130.48 95.03L130.74 94.68L131.08 94.26L131.68 93.54L131.73 93.45L131.75 93.42L131.85 93.29L131.95 93.09L131.98 92.84L132.01 92.57L131.91 92.1L131.51 91.44L131.43 91.14V90.84L131.65 89.9L131.68 89.52L131.65 89.15L131.45 88.45L131.09 87.8L131.07 87.74L131.02 87.56V87.4L131.03 87.1L131.17 86.7L131.27 86.54L131.53 86.26L131.79 86.03L131.95 85.97L132.05 85.91L132.1 85.82L132.15 85.77L132.85 85.6L133.07 85.55L134.03 85.31L134.83 85.05L135.07 84.98L135.25 84.97H135.48L135.58 85L135.68 85.04L135.75 85.12L135.81 85.19L135.89 85.3L135.91 85.37V85.43L135.89 85.54L136.07 85.89L136.21 86.02L136.33 86.22L136.46 86.52L136.66 86.8L136.79 86.91L136.94 87.01L137.12 87.08L137.31 87.14L137.51 87.17L137.71 87.19L138.25 87.1L138.45 87.08L138.92 87.01L139.02 87L139.49 86.96L139.69 86.92L139.92 86.85L140.05 86.83H140.48L140.93 86.79L141.7 86.69L142.04 86.61L142.41 86.47L142.79 86.28L143.45 85.88L143.81 85.72L144.17 85.59L144.45 85.53L144.77 85.48H145.13L145.28 85.44L145.45 85.37L145.71 85.21L146.42 84.55L146.49 84.51L146.74 84.28L147.07 84.07L147.36 83.97L147.64 83.89L147.94 83.85L148.24 83.83L148.9 83.85H150.59L150.98 83.89L151.31 83.95L151.91 84.07L152.12 84.11L152.35 84.13L152.61 84.11L152.86 84.03L153.13 83.92L153.38 83.8L153.68 83.55L153.9 83.31L154.37 82.71L154.82 82.3L155.24 81.96L155.9 81.55L156.21 81.37L156.56 81.2L157.06 81L157.6 80.83L158.37 80.64L159.32 80.41L160.31 80.19L160.97 79.99L161.63 79.73L163.47 78.92L163.68 78.82L164.42 78.5L165.81 77.86L166.24 77.7L166.33 77.65L166.53 77.55L166.94 77.01L167.31 76.43L167.61 75.96L167.74 75.87L167.81 75.83M167.81 75.83L167.85 75.5V75.37L167.86 75.17L167.89 74.8L167.93 74.67L167.95 74.63L168.05 74.49L168.09 74.44L168.13 74.37L168.25 74.24L168.37 74.12L168.52 74L168.62 73.93L168.82 73.83L168.94 73.78L169.16 73.68L169.6 73.47L170.2 73.15L170.7 72.88L171.32 72.4L171.71 71.91L171.79 71.81L172.19 71.03L172.43 70.7L172.78 70.43L173.28 70.23L173.56 70L173.73 69.8L174.15 69.07M167.81 75.83L168.19 75.43L168.21 75.39L168.28 75.24L168.34 75.09L168.44 74.92L168.47 74.89L168.51 74.85L168.81 74.67L168.95 74.59L169.07 74.53L169.17 74.47L169.51 74.27L170.26 73.87L170.68 73.7L171.43 73.3L171.85 73.05L172.35 72.79L173.27 72.19L173.52 71.88L173.72 71.5L173.86 71.18L173.93 70.77L174.05 69.95L174.15 69.07M174.15 69.07L174.28 68.67L174.9 67.55L175.5 66.86L177.52 65.78L178.15 64.94L179.15 64.19L180.71 63.29L180.88 62.92L180.91 62.86L180.99 62.62L181.15 62.5L181.29 62.45L181.72 62.28L181.89 62.24L182.71 62.03L183.08 61.8L184.29 60.95L185.49 60.01L185.73 59.86L186.03 59.66L186.57 59.46L187.57 59.3L189 59.14L190.82 59.09L193.09 58.74L194.99 57.81L196.08 57.41L196.44 57.01L197.05 56.75L197.65 56.61L198.56 56.41L199.78 56.38L200.28 56.36L200.84 56.29L201.39 56.06L201.7 55.79L202.03 55.32L202.39 55.01L203.73 54.34L205.39 53.52L206.34 52.47L207.08 52.05L208.18 51.93L209.42 52.11L211.34 52.03L212.58 51.96L214.04 51.61L214.43 51.49L214.98 51.36L215.76 51.31L215.94 51.29L217.42 51L218.09 50.87L218.5 50.84L220.57 51L221.34 50.84L222.28 50.34L223.28 50.09L225.28 49.42L226.23 49.12L227.12 48.85L228.17 48.55L228.94 48.41L229.58 48.32L230.58 48.18L230.7 48.16L231.69 48.13H232.23L232.86 48.06L233.39 48L234.69 47.81L235.51 47.79L235.78 47.74L236.05 47.72L236.25 47.76L237.05 47.72L237.8 47.69L238.03 47.65L238.26 47.57L238.71 47.25L239.21 46.62L239.94 45.57L240.18 45.33L240.38 45.23L240.56 45.17L240.72 45.14L240.94 45.15H241.02L241.42 45.19H241.45L241.66 45.21L241.95 45.25H241.99L242.53 45.31L243.01 45.33L243.61 45.21L244.05 44.98L244.39 44.68L244.73 44.18L245.01 43.91L245.39 43.71L245.71 43.59H246.05L247.47 43.58L249.93 43.65L250.36 43.55L250.88 43.3L251.25 43L251.3 42.95L251.66 42.54L252.63 41.36L252.95 41L253.35 40.72L253.67 40.67L254.73 40.82L255.31 40.84L255.86 40.7L256.46 40.4L257.01 39.98L257.44 39.65L257.89 39.39L258.43 39.32L258.98 39.38L259.43 39.48L259.78 39.57L260.16 39.59H260.5L260.84 39.53L261.18 39.43L262.08 39.15L262.88 38.89L263.48 38.6H263.51L263.74 38.52L264.71 38.14L264.87 38.05L265.07 37.92L265.28 37.74L265.48 37.51L265.56 37.4L265.77 37.05L266.07 36.75L266.37 36.55L266.51 36.52H266.87L267.97 36.55L268.97 36.57L269.36 36.42L269.91 36.2L271.83 35.33L272.61 35.21L273.83 35.23L273.9 35.21L274.38 35.09L274.72 34.93L275.16 34.63L275.6 34.39L278.43 33.61L279.08 33.18L279.72 32.78L281.38 32.71L282.04 32.47L282.62 32.27L283.32 32.14L284.34 32.22L284.63 32.17L284.86 32.09L285.14 31.96L285.34 31.82L285.64 31.55L285.74 31.41L286.04 30.93L286.5 30.77L288.27 30.84L289.09 30.99L289.56 30.97L289.79 30.84L290.02 30.58L290.29 29.94L290.79 29.18L291.52 28.35L291.92 28.09L292.14 28.02L293.01 27.96L293.29 27.88L294.29 27.35L296.4 26.28L296.52 26.13L297.4 24.99L298.29 23.52L298.32 22.63L298.11 21.43L298.51 20.48L299.13 19.76L299.34 19.08L299.13 17.72L299.38 16.98L300.3 16.32L301.01 15.32L301.11 14.79L302.75 11.81L303.29 11.08L303.37 10.96L303.89 10.43L304.25 10.1L305.62 8.80001L305.86 8.63001L306.36 8.43001L306.8 8.28001L307.14 8.00001L307.24 7.86001L307.6 7.35001L308.05 7.08001L308.65 6.96001L309.38 6.86001L309.71 6.70001L310.11 6.30001L310.42 5.88001L310.81 5.66001L311.34 5.58001L311.81 5.62001L312.65 5.96001H313.17L313.71 5.82001L314.03 5.88001L314.43 6.00001L315.13 6.63001L315.59 6.89001L315.99 6.96001L316.04 6.95001L316.54 6.87001L317.06 6.55001L317.56 5.98001L317.96 5.15001L318.42 4.32001L318.7 4.02001L319.13 3.72001L319.79 3.39001L320.11 3.09001L320.33 2.69001L320.43 2.20001L320.39 1.40001L320.45 1.06001L320.76 0.54001L321.26 0.17001L321.58 0.0500098L321.81 0.0100098H322.01L322.16 0.0500098L322.66 0.21001L322.93 0.0700098M29.44 403.93C28.2465 403.93 27.1019 403.456 26.258 402.612C25.4141 401.768 24.94 400.623 24.94 399.43C24.94 398.237 25.4141 397.092 26.258 396.248C27.1019 395.404 28.2465 394.93 29.44 394.93C30.6335 394.93 31.7781 395.404 32.622 396.248C33.4659 397.092 33.94 398.237 33.94 399.43C33.94 400.623 33.4659 401.768 32.622 402.612C31.7781 403.456 30.6335 403.93 29.44 403.93ZM30.25 404.07C29.0565 404.07 27.9119 403.596 27.068 402.752C26.2241 401.908 25.75 400.763 25.75 399.57C25.75 398.377 26.2241 397.232 27.068 396.388C27.9119 395.544 29.0565 395.07 30.25 395.07C31.4435 395.07 32.5881 395.544 33.432 396.388C34.2759 397.232 34.75 398.377 34.75 399.57C34.75 400.763 34.2759 401.908 33.432 402.752C32.5881 403.596 31.4435 404.07 30.25 404.07ZM30.19 404.07C28.9965 404.07 27.8519 403.596 27.008 402.752C26.1641 401.908 25.69 400.763 25.69 399.57C25.69 398.377 26.1641 397.232 27.008 396.388C27.8519 395.544 28.9965 395.07 30.19 395.07C31.3835 395.07 32.5281 395.544 33.372 396.388C34.2159 397.232 34.69 398.377 34.69 399.57C34.69 400.763 34.2159 401.908 33.372 402.752C32.5281 403.596 31.3835 404.07 30.19 404.07ZM29.91 403.94C28.7165 403.94 27.5719 403.466 26.728 402.622C25.8841 401.778 25.41 400.633 25.41 399.44C25.41 398.247 25.8841 397.102 26.728 396.258C27.5719 395.414 28.7165 394.94 29.91 394.94C31.1035 394.94 32.2481 395.414 33.092 396.258C33.9359 397.102 34.41 398.247 34.41 399.44C34.41 400.633 33.9359 401.778 33.092 402.622C32.2481 403.466 31.1035 403.94 29.91 403.94Z"
		stroke="black" />
</svg>