<svg width="262" height="772" viewBox="0 0 262 772" fill="none" xmlns="http://www.w3.org/2000/svg">
	<path fill-rule="evenodd" clip-rule="evenodd"
		d="M112 244L111 251L114 249L115 250L119 246V244L116 243L112 244Z" stroke="black"
		stroke-width="2" />
	<path
		d="M109 219L108 218L112 214V209L119 200L120 194L125 183L138 171L140 161L142 157L147 153L145 149L151 142L157 139L160 130L164 126L162 125L167 117V120L170 109L174 103V97L178 87L181 86L187 74L186 71L188 64L191 59L193 50L197 46L196 43L202 28L203 29L204 22L208 14L210 12L219 10L222 11L227 5L230 6V4H237L238 1L240 3L239 2L242 1H248L250 3L251 2L256 9H253L255 11L256 10L261 15L260 17H258L260 22L258 29V38L261 55V78L248 98L242 103L239 109L237 110L233 121L234 123L230 134L228 146L226 148L222 166L214 187L215 189L214 191L213 190L214 193L212 197L210 217L189 276L188 285L183 296V320L181 332L178 339V345L187 390L186 391L188 407L186 411L185 420L189 441V453L186 471L184 475L186 486L185 537L181 550L187 558L188 562L189 586L191 597L190 598L195 620L199 650V678L201 680V698L200 704L194 710L195 711L193 713V716L196 718V723L192 725L194 730V738L198 741V745L195 746V748L192 751L193 755L191 756L190 762L189 763L186 759L187 762L183 766L174 770H170L168 768L169 767L159 766L156 768L155 767L151 771H130L113 758L109 757L87 744L66 730L60 719V708L65 702V672L68 669L66 655L70 652L69 642L73 633L80 626H83L92 619L95 603L92 599L90 588L85 578V574L82 572L78 565L67 557L59 546L56 539L57 520L45 501L46 492L48 491L49 488L47 483L44 484L43 481H41L39 484L32 486L28 494L24 496H19L7 486L3 479L4 478L2 477L1 471L5 464H1L5 463L4 456L8 449L18 443V437L14 430L18 418L26 410L27 402L30 399H34L35 395L41 391L40 385L44 383L41 380L40 376L43 372L54 369L56 367L55 351L58 346L65 343L74 330L73 323L76 318L77 310L83 298L85 286L88 281L87 273L89 272V268L96 256L94 245L101 239L106 237L109 238L111 236V222L109 219Z"
		stroke="black" stroke-width="2" />
</svg>