<svg width="414" height="298" viewBox="0 0 414 298" fill="none" xmlns="http://www.w3.org/2000/svg">
	<path
		d="M109 75L114 73L124 75L141 74L151 70H176L188 64V52L193 46H200L205 44L212 45L224 52L236 51L245 57L247 56V58L250 57L258 59L269 70L271 69L270 71L273 70L272 72L275 74L276 77H278L279 81L292 88L314 119L322 122V124L319 125L324 133L331 141L332 140L336 143L349 166L353 170L354 173L352 175L350 174L353 182L356 181L355 182L361 193V197L365 205L371 212L375 224L380 228L389 230L396 234L404 240L408 246L409 256L407 261L409 263L411 261L413 262V271L410 275L406 274L403 276L408 281L405 282V289L389 297H386L384 293L380 292L378 293H380L381 295H373L372 291L367 292L366 290L370 287L367 284H361L356 286L355 285L360 282L357 279L353 282V284H349L347 282L340 284L324 272L311 265L304 258L301 252L299 254L292 251L291 255L289 256L284 254L280 241L273 232L260 223L255 224L251 221L243 207L241 198L234 184L222 179L210 178L187 167L179 165H165L153 162L148 156V148L151 145H155L157 141H153L151 143L149 139L146 140L144 136L134 138L130 131L131 120L125 118L124 115L108 107L105 102H100L96 98V94L92 91L89 86V82L91 80L88 78L87 74H75L72 71L62 67L58 63L50 61L47 65L38 67L34 62L36 58L31 55L26 61L16 63L14 67L7 63L2 54L1 45L15 25L13 17L16 5L29 3L43 5L48 8L50 7L53 1L64 6H71L74 4V2L80 1L81 14L89 23L95 37L97 50L101 61L108 75H109Z"
		stroke="black" stroke-width="2" />
</svg>